# xmcd CD database file
#
# Track frame offsets:
#	150
#	31500
#	61650
#	97200
#	118050
#	141300
#	165900
#	187950
#	217050
#	243750
#	270150
#	306600
#	321600
#
# Disc length: 4574 seconds
#
# Revision: 0
# Processed by: cddbd v1.5.2PL0 Copyright (c) Steve Scherf et al.
# Submitted via: CDex 1.70beta2
#
DISCID=b611dc0d
DTITLE=Blues Deluxe The Tribute to Joe Bonamassa - Premaster 01-2012
DYEAR=2012
DGENRE=Blues
TTITLE0=Blue and Evil
TTITLE1=Breakdown
TTITLE2=Bridge to Better Days
TTITLE3=I don´t need no Doctor
TTITLE4=Don´t change Horses
TTITLE5=Hard Way
TTITLE6=Help me Baby
TTITLE7=If Heartaches were Nickels
TTITLE8=Miss You, hate You
TTITLE9=Sloe Gin
TTITLE10=Stop
TTITLE11=Walking in my Shadows
TTITLE12=You upset me, Baby
EXTD=YEAR: 2012
EXTT0=
EXTT1=
EXTT2=
EXTT3=
EXTT4=
EXTT5=
EXTT6=
EXTT7=
EXTT8=
EXTT9=
EXTT10=
EXTT11=
EXTT12=
PLAYORDER=
